<svg t="1587973464235" class="icon" viewBox="0 0 1024 1024" version="1.1" xmlns="http://www.w3.org/2000/svg" p-id="1652" width="200" height="200"><path d="M896 618.666667c0 211.2-172.8 384-384 384S128 829.866667 128 618.666667c0-23.466667 2.133333-51.2 6.4-78.933334C166.4 326.4 315.733333 21.333333 512 21.333333s345.6 305.066667 377.6 518.4c4.266667 27.733333 6.4 55.466667 6.4 78.933334z m-682.666667 0c0 164.266667 134.4 298.666667 298.666667 298.666666s298.666667-134.4 298.666667-298.666666v-6.4l-281.6 130.133333c-4.266667 2.133333-10.666667 4.266667-17.066667 4.266667-6.4 0-12.8-2.133333-17.066667-4.266667L213.333333 612.266667v6.4z m46.933334-219.733334c-14.933333 42.666667-27.733333 83.2-36.266667 123.733334L512 657.066667l288-132.266667c-8.533333-40.533333-19.2-83.2-36.266667-123.733333l-234.666666 108.8c-4.266667 0-10.666667 2.133333-17.066667 2.133333-6.4 0-12.8-2.133333-17.066667-4.266667l-234.666666-108.8zM512 106.666667c-81.066667 0-162.133333 96-219.733333 215.466666L512 422.4l219.733333-100.266667C674.133333 202.666667 593.066667 106.666667 512 106.666667z"  p-id="1653"></path></svg>