<svg t="1587973906913" class="icon" viewBox="0 0 1024 1024" version="1.1" xmlns="http://www.w3.org/2000/svg" p-id="3988" width="200" height="200"><path d="M512 384C441.173333 384 384 441.173333 384 512 384 582.826667 441.173333 640 512 640 582.826667 640 640 582.826667 640 512 640 441.173333 582.826667 384 512 384M512 725.333333C394.24 725.333333 298.666667 629.76 298.666667 512 298.666667 394.24 394.24 298.666667 512 298.666667 629.76 298.666667 725.333333 394.24 725.333333 512 725.333333 629.76 629.76 725.333333 512 725.333333M512 192C298.666667 192 116.48 324.693333 42.666667 512 116.48 699.306667 298.666667 832 512 832 725.333333 832 907.52 699.306667 981.333333 512 907.52 324.693333 725.333333 192 512 192Z" p-id="3989"></path></svg>